<?xml version="1.0" encoding="UTF-8" standalone="no"?>
<!DOCTYPE svg PUBLIC "-//W3C//DTD SVG 1.1//EN" "http://www.w3.org/Graphics/SVG/1.1/DTD/svg11.dtd">
<svg width="100%" height="100%" viewBox="0 0 815 990" version="1.1" xmlns="http://www.w3.org/2000/svg" xmlns:xlink="http://www.w3.org/1999/xlink" xml:space="preserve" xmlns:serif="http://www.serif.com/" style="fill-rule:evenodd;clip-rule:evenodd;stroke-linejoin:round;stroke-miterlimit:2;">
    <g transform="matrix(1,0,0,1,-212.616,-213.336)">
        <g transform="matrix(2.02893,0,0,2.02893,-1007.76,-1075.31)">
            <g transform="matrix(4.16667,0,0,4.16667,0,-1739.98)">
                <path d="M170.272,572.392C169.832,571.602 169.403,570.695 168.984,571.182C168.565,571.669 168.945,574.374 168.945,574.374L171.777,611.549C170.76,612.096 171.808,613.049 171.808,613.049C167.3,614.847 166.496,622.018 166.496,622.018C166.174,621.634 165.913,621.37 165.652,621.549C165.489,621.661 164.982,621.89 165.496,622.518C166.83,624.15 167.557,625.786 166.902,626.643C166.246,627.5 163.177,630.995 162.027,633.893C161.293,635.741 159.832,638.868 158.527,640.174C157.786,640.915 156.777,640.393 156.777,640.393C154.487,639.762 150.657,637.238 146.714,639.643C142.772,642.048 144.964,646.955 144.964,646.955C144.964,646.955 144.746,648.764 144.464,651.737C144.183,654.709 147.214,654.018 147.214,654.018C147.147,654.794 147.527,654.705 147.527,654.705C147.674,656.379 149.464,657.205 149.464,657.205C149.732,656.429 150.433,656.612 150.433,656.612C150.253,658.144 151.402,658.362 151.402,658.362C151.687,659.293 151.714,660.08 151.714,660.08C152.345,659.825 152.089,658.049 152.089,658.049C152.69,657.899 153.027,656.58 153.027,656.58L153.996,656.987L153.777,655.768C155.309,655.062 154.8,653.289 154.996,653.424C155.191,653.559 155.871,653.612 155.871,653.612C155.987,659.305 158.559,657.512 161.996,660.768C165.433,664.023 166.464,666.455 166.464,666.455C166.447,667.3 165.746,676.112 165.746,676.112C165.729,676.516 166.714,676.487 166.714,676.487L166.933,680.643C167.095,680.898 169.464,680.893 169.464,680.893C169.464,680.893 169.365,681.579 169.652,682.112C169.938,682.644 171.152,682.362 171.152,682.362C170.66,688.07 175.731,688.897 181.527,683.018C187.323,677.139 185.678,679.342 190.496,676.049C195.313,672.756 200.26,672.696 199.589,671.049C198.919,669.402 194.576,670.7 192.714,670.362C191.243,670.094 190.159,669.167 189.183,671.393C188.207,673.619 184.871,674.799 184.871,674.799C184.871,674.799 189.579,665.55 191.808,664.362C198.304,660.898 200.933,656.893 200.933,656.893C202.971,656.888 204.971,656.889 208.371,653.549C211.771,650.209 210.464,643.862 210.464,643.862C210.464,643.862 213.093,640.345 213.902,638.83C214.711,637.315 212.029,636.168 211.433,637.612C210.837,639.055 209.089,638.737 209.089,638.737C204.388,624.395 188.558,615.737 188.558,615.737L188.277,614.643C185.645,610.86 183.746,613.518 183.746,613.518C178.701,611.489 173.808,612.487 173.808,612.487C173.743,611.451 173.089,611.205 173.089,611.205L170.908,576.937C170.908,576.937 170.711,573.181 170.272,572.392ZM177.496,613.987C178.796,614.044 180.267,614.26 181.964,614.705C181.964,614.705 181.911,614.955 182.589,616.174C183.268,617.393 184.606,619.147 183.371,619.549C183.04,619.657 182.519,619.963 181.933,620.424C180.333,621.684 178.075,623.97 176.777,625.612C175.003,627.855 175.559,627.928 173.621,629.33C171.682,630.733 170.558,632.393 170.558,632.393C170.558,632.393 170.122,631.329 169.839,630.518C169.578,629.767 169.449,629.12 169.371,628.83C169.371,628.83 171.441,621.822 168.339,621.518C168.339,621.518 168.392,613.583 177.496,613.987ZM188.183,617.705C194.446,620.952 200.246,627.199 203.746,632.268C206.307,635.977 207.464,639.237 207.464,639.237C207.12,639.471 206.894,639.422 206.996,640.799C207.097,642.176 202.876,645.466 201.308,646.33C199.734,647.198 197.904,649.559 197.308,651.362C196.712,653.164 193.214,653.424 193.214,653.424C183.861,651.437 174.152,637.768 174.152,637.768C174.152,637.768 175.252,636.612 176.246,635.299C176.951,634.367 177.582,633.021 178.183,632.674C180.259,631.476 181.71,629.237 182.402,627.237C183.094,625.237 184.951,622.821 185.777,621.455C186.603,620.09 186.762,619.301 187.308,618.768C187.848,618.242 188.183,617.705 188.183,617.705ZM168.371,630.299C168.371,630.299 168.623,631.481 169.621,633.455C169.621,633.455 168.069,634.894 166.246,635.299C166.246,635.299 167.154,632.262 168.371,630.299ZM173.089,639.018C173.089,639.018 173.429,639.458 174.152,640.362C174.621,640.948 175.369,641.786 176.121,642.612C179.217,646.009 183.825,651.305 190.496,654.143C190.496,654.143 188.529,655.019 187.527,654.268C187.527,654.268 182.651,651.45 178.635,653.145C175.04,653.655 173.361,651.186 172.433,649.762C171.712,648.658 170.658,644.516 169.693,643.633C169.693,643.633 172.164,640.941 172.433,640.205C172.691,639.501 173.089,639.018 173.089,639.018ZM208.996,645.143C208.996,645.143 210.256,654.196 201.652,655.299C201.652,655.299 208.468,646.543 208.996,645.143Z" style="fill:#e6d1f2;fill-rule:nonzero;"/>
            </g>
            <g transform="matrix(4.16667,0,0,4.16667,0,-2009.77)">
                <path d="M169.774,638.817C168.214,637.13 168.485,635.377 170.65,634.951C171.75,634.575 174.021,634.902 175.715,635.07C180.59,635.552 186.526,637.658 191.704,640.918C196.622,644.014 200.228,647.612 199.053,652.238C198.566,654.158 197.02,655.882 195.236,657.727C193.057,659.981 190.521,662.271 189.089,663.515C184.159,667.798 181.99,672.433 184.768,673.737C186.115,674.37 187.589,673.97 190.164,672.904C193.791,671.402 198.555,668.794 202.675,667.017C206.27,665.466 209.569,664.196 211.224,665.467C212.929,666.776 212.805,669.832 211.403,671.645C209.504,674.102 206.866,677.721 205.925,681.18C205.134,684.092 205.472,686.511 206.047,687.326C206.586,688.088 207.56,688.454 208.733,687.246C210.152,685.784 211.106,684.403 212.123,682.907C213.76,680.499 215.452,677.478 218.702,670.98C218.702,670.98 219.267,671.4 218.069,674.252C216.872,677.103 210.633,689.14 206.605,689.453C202.576,689.765 203.325,681.574 207.113,676.017C210.902,670.46 210.603,670.773 211.049,669.078C211.11,666.262 210.072,665.039 204.992,667.089C202.451,668.114 198.301,670.142 194.337,671.929C189.901,673.93 186.712,675.775 184.35,675.091C182.94,674.682 182.141,673.369 182.326,671.951C182.549,670.238 183.726,667.902 185.512,665.816C186.711,664.417 188.255,663.244 189.704,662.024C191.014,660.92 192.321,659.568 193.688,658.233C195.496,656.469 197.268,654.652 197.915,652.664C198.437,651.06 198.114,649.496 197.255,647.982C196.743,647.081 196.015,646.203 195.159,645.405C193.832,644.171 192.478,643.051 190.644,641.813C188.309,640.236 185.363,638.811 182.479,637.863C178.473,636.545 174.385,635.873 172.082,635.827C171.29,635.812 170.857,636.182 170.438,636.435C170.239,636.68 170.097,636.893 170.18,637.203C170.42,638.098 170.461,638.519 170.415,638.777C170.361,639.085 169.943,638.999 169.774,638.817Z" style="fill:#e6d1f2;fill-rule:nonzero;"/>
            </g>
            <g transform="matrix(2.86378,-3.02653,-3.02653,-2.86378,2212.78,3356.65)">
                <path d="M223.203,611.028C223.203,611.028 221.928,644.411 221.827,651.817C221.77,655.982 222.271,658.021 223.203,658.207C223.928,658.352 224.988,657.164 224.873,654.244C224.592,647.103 223.203,611.028 223.203,611.028ZM222.963,653.826C223.186,652.491 223.594,653.21 223.698,653.709C223.774,654.078 223.887,655.765 223.798,656.239C223.564,657.493 223.244,656.9 223.049,656.39C222.88,655.946 222.915,654.113 222.963,653.826Z" style="fill:#e6d1f2;"/>
            </g>
        </g>
    </g>
</svg>
